<svg width="104px" height="95px" viewBox="19 52 104 95" version="1.1" xmlns="http://www.w3.org/2000/svg" xmlns:xlink="http://www.w3.org/1999/xlink">
    <!-- Generator: Sketch 42 (36781) - http://www.bohemiancoding.com/sketch -->
    <desc>Created with Sketch.</desc>
    <defs>
        <polygon id="path-1" points="19.4365217 0.226679278 19.4365217 18.8867709 0.0943198676 18.8867709 0.0943198676 0.226679278 19.4365217 0.226679278"></polygon>
        <polygon id="path-3" points="2.71050543e-20 0.6182 2.71050543e-20 14.6112 12.1366 14.6112 12.1366 0.6182 0 0.6182"></polygon>
    </defs>
    <g id="Flag" stroke="none" stroke-width="1" fill="none" fill-rule="evenodd" transform="translate(19.000000, 52.000000)">
        <g id="Group-3" transform="translate(10.000000, 0.000000)" fill="#232323">
            <path d="M25.3079,93.9964144 C24.0219,93.9343938 22.8789,93.0593216 22.5679,91.7840227 L0.8349,3.97057938 C0.4569,2.42394021 1.4449,0.873424742 3.0409,0.508084536 C4.6369,0.14274433 6.2369,1.10018763 6.6139,2.40746598 L28.3469,90.2218784 C28.7249,92.0059402 27.7369,93.5564557 26.1409,93.9217959 C25.8609,93.9857546 25.5809,94.0099814 25.3079,93.9964144" id="Fill-1"></path>
        </g>
        <path d="M14.3956251,9.82 C14.9236251,9.82 14.9236251,9 14.3956251,9 C13.8686251,9 13.8676251,9.82 14.3956251,9.82" id="Fill-4" fill="#262828"></path>
        <path d="M56.0442604,42.0000028 C57.6788765,41.9990682 65.5139691,42.2317659 67.6998281,46.7464749 C67.70184,46.7511476 67.7028459,46.7558202 67.7048577,46.7614274 C68.9381127,50.892045 66.0199457,52.6059709 64.2344418,52.9975385 C64.1610098,53.0134255 64.1258027,52.9498776 64.1358619,52.8797879 C64.4316017,50.8397114 62.8000033,46.1437038 56,42.152331 C56.0231361,42.0719615 56.0211243,42.0794377 56.0442604,42.0000028" id="Fill-6" fill="#E05A56"></path>
        <path d="M59.6804366,15.1437335 C58.0333909,14.4871757 56.4366662,16.2025418 57.1934169,17.804775 L69.2859453,43.4221343 C69.8114129,44.5379925 70.0359221,46.2262841 69.7727044,47.4311016 C69.5665818,48.3738761 69.1272406,50.0302585 68.6608034,50.6404028 C68.5195175,50.8250899 68.7178984,51.0745625 68.9298273,50.9788347 C73.8003215,48.768391 79.6162703,46.3693925 83.3284133,47.0365868 C85.6122134,47.4475397 86.7773386,49.012062 85.4235096,44.5650671 C81.5739515,31.9193182 80.1262545,26.9598408 79.2127344,24.3258738 C78.784038,23.091081 77.3644046,22.1425048 76.0570258,22.1734471 C74.9877041,22.1985878 73.560329,21.9742558 71.8397371,21.596179 C68.9414399,20.9599271 63.6654744,16.7304956 59.6804366,15.1437335" id="Fill-8" fill="#F16961"></path>
        <g id="Group-12" transform="translate(84.000000, 32.000000)">
            <mask id="mask-2" fill="white">
                <use xlink:href="#path-1"></use>
            </mask>
            <g id="Clip-11"></g>
            <path d="M0.0985838509,0.360822955 C0.0985838509,0.360822955 3.58280745,12.9940957 4.17709317,14.9109366 C4.77137888,16.8287707 4.73957764,18.4933434 3.92765217,18.8498957 C3.07398758,19.2243252 17.024795,16.918157 19.4347329,4.01076614 C19.448646,3.93826386 19.3910062,3.87172068 19.3174658,3.87569341 C15.4029317,4.07929568 4.02106832,2.80206386 0.25957764,0.245613864 C0.177093168,0.189995682 0.0717515528,0.2654775 0.0985838509,0.360822955" id="Fill-10" fill="#F16961" mask="url(#mask-2)"></path>
        </g>
        <path d="M82.0008613,48.0833033 C82.071778,48.19751 82.7691258,49.3554918 82.8822549,50.6997616 C82.9725893,51.7837898 84.0692657,52.37261 84.8696116,51.7397921 C85.7813981,51.0189789 86.061688,50.4451367 85.9890828,49.7926603 C85.859913,48.6421675 84.1190763,47.7322579 82.006771,48.0720698 C82.0017055,48.0730059 81.9983286,48.0786227 82.0008613,48.0833033" id="Fill-13" fill="#E05A56"></path>
        <path d="M20.1623525,45.9493218 C20.1623525,45.9493218 9.99609441,4.43738865 10.0000011,4.43544947 C10.4053232,4.2657716 31.8580909,-4.72521629 49.224431,7.08145464 C49.224431,7.08242423 49.4656709,7.32094283 49.4656709,7.32191242 C52.1105193,10.188014 67,44.2826003 67,44.2826003 C67,44.2826003 62.4603932,33.2157249 20.6672959,48" id="Fill-15" fill="#F16961"></path>
        <path d="M31.004191,36.9922632 C30.7227611,37.0359856 30.4615053,36.8905613 30.3949305,36.6529399 C30.3555908,36.514169 30.3787911,36.3687447 30.4594879,36.2423301 C30.5381672,36.1178165 30.6713169,36.0227679 30.830693,35.9761941 C32.0855277,35.6121581 33.3383449,35.2671318 34.5901535,34.9411153 C34.8019825,34.8869376 34.9714457,34.7747803 35.0692905,34.625554 C35.175205,34.464922 35.1943705,34.2691219 35.1247695,34.0419559 C32.9883227,26.9370758 31.0263826,19.5765152 29.2409668,11.9460166 C29.1128607,11.3994874 28.6791155,11.2863796 28.3361543,11.291132 C28.3361543,11.2806767 25.6428998,11.8043943 25.6358389,11.8138991 C25.2989299,11.8310078 25.0639006,11.6466136 25.0134651,11.3899825 C24.9539512,11.09153 25.0941618,10.8529581 25.3856789,10.7531572 C29.1612787,9.98516477 32.9278001,9.4148734 36.6761648,9.03943157 C37.0988141,8.99761021 37.5254982,8.98905584 37.9451214,9.01376846 C42.3229208,9.30841901 45.6193836,12.8546809 46.6623892,15.9665708 C47.2817369,17.8637401 47.0477163,19.7751667 45.9704145,21.3073495 C45.1997604,22.4089623 43.6423129,23.8014238 40.6464455,24.2785676 C40.648463,24.2652608 37.3741918,24.8307997 37.3671308,24.8441065 C37.0251783,24.8602648 36.776027,24.6939298 36.7074348,24.4610608 C36.6701125,24.3327452 36.6923041,24.1930239 36.7689661,24.0770646 C36.8466367,23.9611054 36.9737341,23.8793636 37.1149534,23.85275 C38.3425529,23.6274849 39.5671263,23.42218 40.790691,23.2358848 C42.516593,22.9706993 43.9933438,22.0867477 44.9334611,20.7418106 C45.9038397,19.3522006 46.1600519,17.6270692 45.6536797,16.053065 C44.7841721,13.4202198 41.5946325,10.2522512 37.8956946,10.0355405 C37.5718989,10.0184318 37.2460857,10.0269861 36.9263248,10.0602531 C34.862505,10.2750629 32.7916243,10.5497532 30.7177175,10.8833737 C30.5371585,10.9118883 30.4050176,10.9907786 30.3233121,11.1171931 C30.1588924,11.3719233 30.2426153,11.7454641 30.243624,11.7483156 C32.0562751,19.3464977 34.0444416,26.6775933 36.2081236,33.7520578 C36.3412732,34.1902316 36.5873983,34.3727249 36.9818038,34.3309035 C37.0393002,34.3252006 37.1008315,34.3137948 37.1633715,34.298587 C37.1653889,34.2757753 41.5028399,33.3157849 41.5058661,33.337646 C41.8599231,33.3129334 42.1201702,33.468813 42.1958234,33.6921772 C42.2381892,33.8157403 42.2170063,33.9507092 42.1393357,34.0647675 C42.0606563,34.1797763 41.9315415,34.263419 41.7832612,34.2938346 C38.2336123,35.0304609 34.6658067,35.9229669 31.0879139,36.9732535 C31.0596701,36.9799069 31.0324349,36.9856098 31.004191,36.9922632" id="Fill-17" fill="#FFFFFF"></path>
        <path d="M36.9314222,9.01443416 L36.9314222,9.01443416 C36.5098447,8.98898775 36.082259,8.99681742 35.6606815,9.04085927 C31.9435898,9.42549144 28.2084734,10.00978 24.4643446,10.7966611 C24.1118618,10.9199783 23.9476368,11.2165268 24.0147287,11.570819 C24.074811,11.8761758 24.3421773,12.093449 24.6415874,12.0777896 C24.6726299,12.0768109 24.7026711,12.0728961 24.7337136,12.0660451 C25.6259358,11.8742184 26.518158,11.6941362 27.4093788,11.5248197 C27.6977738,11.523841 28.0973211,11.6285627 28.2124789,12.1414056 C29.982904,20.0004294 31.9285692,27.5834576 34.0474717,34.9002773 C34.107554,35.1106995 34.0945362,35.289803 34.0034113,35.4326944 C33.8932604,35.6098405 33.6959902,35.6842223 33.5888435,35.7126048 C32.3461412,36.0473229 31.1024375,36.4025938 29.8567312,36.7774389 C29.6734801,36.8332253 29.5202703,36.9467554 29.4271427,37.0984551 C29.3330138,37.2521122 29.3049754,37.4273009 29.3510385,37.5936812 C29.4271427,37.8716343 29.721546,38.0419294 30.0369781,37.9910366 C30.0700233,37.9851644 30.1000645,37.9783134 30.1321084,37.9685263 C33.6849751,36.8850968 37.2278282,35.9641327 40.7526565,35.2046554 C40.9238911,35.1674645 41.0750982,35.0666576 41.1652217,34.9286598 C41.2553451,34.7916407 41.2803794,34.6281965 41.2313122,34.4794329 C41.1451942,34.2142031 40.8447827,34.0302061 40.530352,34.0527163 C40.4993095,34.0546738 40.468267,34.0595673 40.4362231,34.0654395 C39.008267,34.3678603 37.5763055,34.6967061 36.1423413,35.051977 C36.0842617,35.0666576 36.0281849,35.0774234 35.9751122,35.0832957 C35.7387885,35.1087421 35.4453866,35.0715512 35.2871698,34.536198 C33.1382262,27.2546118 31.1625199,19.7087745 29.3610522,11.8869416 C29.3600508,11.8840055 29.2849479,11.5355855 29.4281441,11.3065679 C29.4962374,11.1979313 29.6063882,11.1323579 29.7636036,11.1059328 C31.8234252,10.7614276 33.8792412,10.4785811 35.9290491,10.2554357 C36.2424784,10.2221596 36.5609146,10.2133512 36.8803522,10.2299893 C40.5163328,10.4492198 43.6536303,13.6769982 44.5047962,16.3606151 C45.0014766,17.9598236 44.7501323,19.7156255 43.7978278,21.1279009 C42.8775672,22.4951557 41.4315865,23.3936095 39.7422725,23.6617754 C38.52861,23.8526234 37.3129448,24.0640243 36.0952768,24.2949994 C35.9300505,24.326318 35.7838502,24.4251675 35.6937267,24.5661014 C35.6046047,24.7050779 35.578569,24.8743944 35.621628,25.0290302 C35.699735,25.3069832 35.9871287,25.5027248 36.2915456,25.4880442 C36.3225882,25.4860868 36.3526293,25.4821719 36.3826705,25.4762997 C37.4641519,25.2668562 38.5446319,25.0720934 39.6231093,24.8939685 C41.9673204,24.5024854 43.870928,23.415141 44.9664286,21.7992944 C46.04791,20.2040007 46.2832324,18.2152664 45.6603792,16.2412127 C44.6139458,13.0095195 41.3124233,9.32272712 36.9314222,9.01443416 M36.928418,9.17787836 C41.061079,9.45876751 44.436703,12.950797 45.5071693,16.2715526 C46.6787742,19.9495366 44.7531364,23.8721976 39.5990763,24.7354179 C38.5216004,24.9135427 37.4421217,25.1063481 36.3606403,25.3157916 C36.3386101,25.3197065 36.3165799,25.3226426 36.2945498,25.3236213 C36.0672384,25.3343871 35.8419298,25.1866022 35.7808461,24.9752013 C35.7157569,24.7432475 35.8719709,24.5034641 36.117307,24.4564862 C37.3359763,24.2245324 38.5526429,24.0121528 39.7663054,23.8193474 C43.6376084,23.184166 45.6794052,19.5551174 44.6590075,16.3283177 C43.7317373,13.4117684 40.4131915,10.2799034 36.8823549,10.0665451 C36.5599133,10.0489283 36.2344675,10.056758 35.9090217,10.0919915 C33.8602152,10.3122007 31.8054005,10.5940686 29.7465803,10.9366163 C29.0065666,11.0599335 29.2088437,11.9378344 29.2078423,11.9378344 C31.0053045,19.7635822 32.9770054,27.314313 35.1229449,34.6007927 C35.2731506,35.1106995 35.5635484,35.2917604 35.9731094,35.2467399 C36.0351945,35.2408676 36.0982809,35.2281444 36.1653728,35.2115064 C37.6003384,34.8552567 39.0323,34.5254322 40.4612574,34.2220328 C40.4842889,34.2171393 40.5073205,34.2132244 40.530352,34.2122457 C40.764673,34.194629 41.0009967,34.3336055 41.0670872,34.5352193 C41.1401874,34.757386 40.982972,34.9942333 40.7276222,35.0490409 C37.2047966,35.805582 33.6639463,36.72361 30.1120809,37.8041034 C30.0890494,37.8109544 30.0660179,37.8168266 30.0429863,37.8207414 C29.8086653,37.8579323 29.5753457,37.7307003 29.5172662,37.5192994 C29.4531784,37.286367 29.5843581,37.0309242 29.8767586,36.9418618 C31.122465,36.566038 32.36717,36.2107671 33.6108736,35.8740916 C34.0124237,35.765455 34.3849339,35.4219286 34.212698,34.8347039 C32.08979,27.521799 30.1401194,19.9436644 28.3656887,12.0895341 C28.2064706,11.3878006 27.606649,11.3506097 27.3953596,11.3535458 L27.3943582,11.3535458 C26.5031374,11.5218836 25.6119166,11.7009871 24.7196944,11.8918351 C24.6966629,11.8967287 24.6736313,11.8996648 24.6505998,11.9006435 C24.4292966,11.912388 24.2150031,11.7538373 24.16894,11.5150326 C24.1208741,11.2683983 24.2200099,11.0638483 24.4773625,10.9718498 C28.2234939,10.1810539 31.9616145,9.59285048 35.6807089,9.20528218 C36.1032878,9.16124033 36.5208598,9.15341067 36.928418,9.17787836" id="Fill-19" fill="#FFFFFF"></path>
        <path d="M34.0864829,36.9941936 C33.8139686,37.032199 33.5590358,36.8801773 33.4916398,36.6394763 C33.4525697,36.4991486 33.4721047,36.3529739 33.5492683,36.2282381 C33.6254551,36.1044769 33.7534098,36.0118996 33.9077369,35.9690217 C35.1198884,35.6298964 36.3310631,35.3112356 37.5402843,35.0120647 C37.7434491,34.9613908 37.9085205,34.852247 38.0013121,34.7050978 C38.1019177,34.5462546 38.1175458,34.349406 38.0481963,34.1194245 C35.9022682,26.928604 33.923365,19.4775924 32.1153937,11.754696 C31.9864622,11.2011811 31.5645046,11.0764454 31.2324083,11.0725474 C31.233385,11.0618279 28.6283827,11.521791 28.6225221,11.5325104 C28.2943329,11.5403064 28.0667492,11.3493048 28.0140045,11.0900884 C27.9544226,10.787994 28.0872611,10.551191 28.3685662,10.4576392 C32.0196718,9.77841409 35.6590565,9.30091008 39.2779293,9.02220366 C39.6862124,8.99004522 40.0993792,8.99296872 40.5037553,9.02999964 C44.7360295,9.44221228 47.9563868,13.0946307 48.9995598,16.2461572 C49.820033,18.7788774 49.1558404,21.2882097 47.2218679,22.8435084 C47.0079588,23.050102 46.7657239,23.2459761 46.5049306,23.4252837 C46.8741436,23.4983711 47.1915885,23.5782799 47.4660564,23.6659847 C48.6948126,24.0499369 50.9052065,25.1754821 51.9366585,28.0531746 C52.398663,29.3434099 52.8665281,30.6258493 53.3402537,31.8985436 C53.4027659,32.0301009 54.501614,32.5495083 54.7985471,32.5592533 C54.7975704,32.5573043 56.9132191,33.2423763 56.9161493,33.2443253 C57.1759658,33.2560193 57.7278317,33.6214561 57.8714145,33.7822482 C57.9935088,33.9206269 58.0316022,34.0784956 57.9729969,34.2158998 C57.9163452,34.3474571 57.7805764,34.4351619 57.607691,34.4488048 C57.5383415,34.4322384 54.5338468,33.5103633 53.2728577,33.4967203 C51.994287,33.4791794 49.7282182,33.9401169 49.7047761,33.9508364 L49.6862177,33.9508364 C49.3629122,33.9557089 49.1343518,33.8027127 49.046444,33.5795526 C49.0034668,33.4704089 49.0122576,33.3651631 49.0698861,33.2764838 C49.1372821,33.171238 49.2759811,33.0971761 49.4449596,33.0728137 C50.2752003,32.8486792 51.1034875,32.6362386 51.9288445,32.4345175 C51.9874497,32.4267215 52.0401944,32.3877416 52.0851251,32.3214758 C52.1818237,32.1782246 52.2296846,31.9355746 52.184754,31.8118133 C51.7471682,30.6063593 51.3144663,29.3940838 50.8876249,28.1740124 C50.0456631,25.7903903 48.4105773,24.965965 47.2521473,24.5761658 C46.4902793,24.3237709 45.7547837,24.257505 45.2703138,24.2487345 C44.9196592,24.241913 44.66668,24.263352 44.5709581,24.275046 C43.7416941,24.3783428 42.9114534,24.4913845 42.0802359,24.6141713 C42.0812127,24.6083243 40.1247748,24.9211381 40.1198911,24.9269851 C39.7897483,24.9347811 39.5445831,24.7613205 39.4762103,24.525492 C39.4381169,24.3958837 39.4596055,24.2545815 39.5318853,24.1415398 C39.6061186,24.0255745 39.727236,23.9466402 39.8649583,23.9242267 C41.0487839,23.7273781 42.2316328,23.550994 43.4115514,23.3940998 C45.0788701,23.1709398 46.4951631,22.3211775 47.3869393,20.9939113 C48.3080181,19.6237671 48.5356018,17.8989057 48.0276898,16.3056015 C47.1574022,13.6403496 44.0444878,10.3709089 40.4685922,10.056146 C40.1540775,10.0298346 39.838586,10.0298346 39.5309085,10.0551715 C37.5383308,10.2169382 35.5389158,10.4391237 33.534617,10.7217281 C33.3597781,10.7460906 33.2318233,10.8230759 33.1546598,10.9478117 C32.9983792,11.2021556 33.0843335,11.5773373 33.0843335,11.5812353 C34.9186771,19.2719734 36.9219991,26.691801 39.0933228,33.8524121 C39.2281149,34.2958087 39.4674195,34.4848613 39.850307,34.4527028 C39.9069587,34.4478303 39.965564,34.4380854 40.025146,34.4244424 C40.0280762,34.4010544 44.214443,33.5366747 44.2163965,33.5600627 C44.5572836,33.5434962 44.8131931,33.7062374 44.8884031,33.9323209 C44.9304035,34.0570567 44.9108684,34.1934864 44.8376119,34.3055536 C44.7633786,34.4185954 44.6393309,34.4994787 44.4957481,34.5267647 C41.0702725,35.1835763 37.6252619,35.9992311 34.1675534,36.9766526 C34.1402043,36.9824996 34.1128552,36.9883466 34.0864829,36.9941936" id="Fill-21" fill="#FFFFFF"></path>
        <path d="M40.5144784,9.02982553 C40.1073815,8.99300953 39.6934835,8.990103 39.2844434,9.02207479 C35.6895544,9.29722597 32.0723187,9.7690521 28.4443955,10.4414286 C28.1043384,10.5528454 27.9469406,10.8357473 28.0159236,11.1825928 C28.0761623,11.4809962 28.3404352,11.6989857 28.6289979,11.691235 C28.6591172,11.6902661 28.6892366,11.6873596 28.7183843,11.6815465 C29.5831009,11.5178122 30.4478175,11.3647352 31.3115624,11.2223154 C31.5913808,11.2281284 31.9790459,11.3405141 32.0956369,11.8414055 C33.8921098,19.5223862 35.8586113,26.9320911 37.9912549,34.0831152 C38.0534368,34.2894786 38.0408061,34.4629013 37.9543345,34.599508 C37.848431,34.7680866 37.6589706,34.8368744 37.5550103,34.8620643 C36.3521799,35.15853 35.1483778,35.4753414 33.941661,35.8115296 C33.7648313,35.8609406 33.6161778,35.968482 33.527763,36.1138084 C33.4374049,36.2601035 33.4131151,36.4306197 33.4587799,36.5933852 C33.5345641,36.864661 33.8231268,37.0361461 34.1291782,36.993517 C34.1602691,36.9896417 34.19136,36.9828598 34.2214794,36.9741402 C37.6618854,36.0014227 41.0896607,35.1885641 44.4989757,34.5345956 C44.6651179,34.5026238 44.8098851,34.4086461 44.8963567,34.2759148 C44.9818568,34.1451211 45.0022602,33.9871998 44.9546522,33.8418735 C44.8681806,33.5822238 44.5747599,33.3962061 44.2706517,33.4117075 C44.2395608,33.4126764 44.2094414,33.4165518 44.1793221,33.4223648 C42.7977188,33.6820145 41.4132007,33.9668541 40.0267394,34.2788213 C39.9703871,34.2914162 39.915978,34.3001358 39.8644836,34.30498 C39.6342164,34.3243569 39.3505117,34.2817278 39.1911706,33.758553 C37.0293792,26.6414385 35.0347016,19.2666119 33.2081093,11.623416 C33.2081093,11.6205095 33.130382,11.279477 33.2673764,11.0614876 C33.3334446,10.9568526 33.4383765,10.8958155 33.5909164,10.874501 C35.5846225,10.5925679 37.5744421,10.3707031 39.5574607,10.2079376 C39.8596257,10.1837166 40.170535,10.1837166 40.4785295,10.2089064 C44.0024924,10.5169983 47.067864,13.7325854 47.9238363,16.35621 C48.4212912,17.9199213 48.1987967,19.6144262 47.2932733,20.9591792 C46.4168976,22.261303 45.0275216,23.0954761 43.3942761,23.3134656 C42.2215649,23.4684804 41.0449675,23.6438408 39.8664268,23.8385781 C39.7061142,23.8647368 39.566205,23.9567768 39.4797333,24.0914459 C39.3942333,24.2241773 39.3718867,24.3879116 39.4146367,24.539051 C39.4933356,24.8103268 39.7750972,25.0079706 40.0694895,25.0002198 C40.0996088,25.0002198 40.1287566,24.9973133 40.1579043,24.9924691 C40.8040127,24.8820211 41.4501212,24.778355 42.0942864,24.6805019 C42.9211109,24.5584278 43.7469638,24.4460421 44.5718451,24.3433448 C44.5990497,24.3394695 44.8497203,24.3094354 45.2577888,24.3162173 C45.7338687,24.3249368 46.4557613,24.3908181 47.2038869,24.636904 C48.3387059,25.017659 49.9408605,25.8237357 50.7657418,28.160583 C51.1903274,29.3735734 51.6197709,30.5797819 52.0540723,31.7782397 C52.0890496,31.8722173 52.0569871,32.0882691 51.9627427,32.2248759 C51.9229075,32.2839753 51.8889018,32.3023833 51.8743279,32.3033521 C51.0426454,32.5058401 50.2090198,32.7189854 49.3724794,32.9427879 C49.1966213,32.967009 49.045053,33.0512983 48.9634393,33.1772477 C48.8934847,33.2847892 48.8827972,33.4107387 48.93332,33.5405636 C49.0324223,33.7963379 49.3015532,33.9716983 49.5862296,33.967823 C49.6153773,33.9668541 49.6445251,33.9649164 49.6746444,33.9600722 C49.7096217,33.9474773 51.9559416,33.4921214 53.1927777,33.5076229 C53.1927777,33.5066541 53.1927777,33.5076229 53.1937493,33.5076229 C54.462648,33.5202179 57.4376616,34.4309295 57.4697241,34.4435245 C57.4862412,34.4483687 57.5027583,34.452244 57.5202469,34.452244 C57.5280196,34.4532129 57.536764,34.452244 57.5445367,34.452244 C57.7456562,34.4348049 57.903054,34.3330765 57.9691222,34.1790305 C58.0361621,34.0220781 57.9924404,33.8360604 57.8535028,33.679108 C57.7116505,33.5211867 57.1325818,33.1200861 56.8275021,33.1065223 C56.8265305,33.1065223 56.8255589,33.1055534 56.8255589,33.1065223 C56.1512743,32.8817509 55.4789329,32.6589172 54.807563,32.43899 C54.7900744,32.433177 54.7706426,32.4302704 54.7541255,32.4293016 C54.7463528,32.4293016 54.7376084,32.4293016 54.7298357,32.4302704 C54.4966537,32.4215509 53.4677382,31.9613508 53.3530904,31.8121491 C52.8838116,30.5516855 52.421334,29.2825022 51.9637143,28.0055682 C50.9241113,25.1106678 48.6981948,23.9761537 47.4603871,23.5886168 C47.2301198,23.5149848 46.9716765,23.4471658 46.6743694,23.3832223 C46.8832616,23.231114 47.0785516,23.0683486 47.2592676,22.8949258 C49.1975929,21.3389653 49.866048,18.8170691 49.0392235,16.2709519 C47.9908761,13.1115576 44.7603339,9.44642766 40.5144784,9.02982553 M40.5144784,9.18871564 C44.517436,9.57237714 47.8189044,13.0505205 48.8915416,16.2971106 C49.6736728,18.7192161 49.1198656,21.1965455 47.1426766,22.7844778 C46.8900628,23.0266883 46.6073296,23.249522 46.2964203,23.4500724 C46.2925339,23.4539477 46.2925339,23.4616985 46.2993351,23.4626673 C46.6306478,23.5246732 47.0358015,23.6109002 47.4195802,23.7320054 C49.0528258,24.2474295 50.9124522,25.5398649 51.8102028,28.0394777 C52.2687941,29.3231936 52.7341865,30.597221 53.2044368,31.8634978 C53.2695335,32.0388582 54.446131,32.5649395 54.7376084,32.5746279 C54.7463528,32.5746279 54.7541255,32.5746279 54.7618982,32.5736591 C55.4439556,32.7964928 56.1269845,33.0212642 56.8119566,33.2489421 C56.8197293,33.2479732 56.8275021,33.2479732 56.8362464,33.2489421 C57.0606841,33.2586305 57.596031,33.611289 57.7262243,33.7575842 C57.9477472,34.0056078 57.8068664,34.2846343 57.5115026,34.3107931 C57.5085878,34.3078866 54.4937389,33.3758604 53.2122096,33.3613278 L53.1840334,33.3613278 C51.9170779,33.3438886 49.6474398,33.8069952 49.6454967,33.8128082 C49.6241216,33.8157147 49.601775,33.8176524 49.5813716,33.8176524 C49.3647067,33.8205589 49.1626156,33.6800768 49.0897462,33.4921214 C49.0052178,33.2760696 49.1752463,33.1229926 49.4220306,33.0871454 C50.2517698,32.8633429 51.0795659,32.6511664 51.9044472,32.4496473 C52.1483167,32.420582 52.2882259,31.9516624 52.2104986,31.7404548 C51.7752255,30.5429659 51.3448104,29.3367574 50.9202249,28.123767 C50.1303209,25.8896169 48.631155,24.962435 47.2495517,24.4944842 C46.5014261,24.2464606 45.773704,24.1728286 45.254874,24.1631402 C44.9002431,24.1553895 44.6437429,24.1776728 44.5465837,24.1902678 C43.722674,24.2919962 42.8968211,24.4043819 42.0709682,24.5254872 C41.4258314,24.6223714 40.7806945,24.7260375 40.1345861,24.8355167 C40.1132111,24.839392 40.0928077,24.8413297 40.0704611,24.8413297 C39.8499098,24.8471428 39.6293585,24.6969722 39.5691198,24.4906089 C39.5030515,24.2638998 39.6517051,24.035253 39.889745,23.9955305 C41.0682857,23.7998244 42.2448831,23.6234951 43.4195374,23.4675115 C47.1640516,22.9472433 49.0946042,19.4846014 48.0715182,16.3290824 C47.1426766,13.4777799 43.8995037,10.3493886 40.4785295,10.0500163 C40.165677,10.0238576 39.8508813,10.0228888 39.5360857,10.0480786 C37.5540387,10.2089064 35.5661622,10.4288336 33.5724562,10.7097978 C32.8583363,10.8105574 33.0594558,11.6689516 33.0604274,11.6679828 C34.8821617,19.3169917 36.872953,26.6956936 39.0318296,33.8176524 C39.1824263,34.3156373 39.4680742,34.4987485 39.863512,34.4638701 C39.9227791,34.4590259 39.9859326,34.4493375 40.0500576,34.4348049 C41.4384621,34.1218689 42.8229802,33.8350916 44.2055551,33.574473 C44.2279017,33.5696288 44.2502483,33.5676911 44.2725949,33.5667223 C44.4989757,33.5550962 44.7302146,33.6946095 44.7962828,33.8922533 C44.8681806,34.1102428 44.7195271,34.3350141 44.4727428,34.3824874 C41.0653709,35.0335493 37.6395388,35.8444702 34.201076,36.8142812 C34.1777578,36.8210631 34.1554112,36.8259074 34.1330645,36.8288139 C33.9047405,36.8598168 33.6773881,36.7309608 33.6200642,36.5245974 C33.5569107,36.2969195 33.6793313,36.0508336 33.9620644,35.9723574 C35.1687812,35.6342315 36.3745265,35.3174201 37.5773569,35.0190167 C37.9669652,34.9221325 38.3235393,34.5975704 38.1515676,34.023047 C36.0150376,26.8758983 34.0446497,19.4710376 32.2442904,11.7949011 C32.0839778,11.1089608 31.4990796,11.0576122 31.296017,11.0556745 L31.2940738,11.0556745 C30.4313004,11.1961566 29.5675554,11.3482648 28.7038105,11.5119992 C28.6814639,11.5158745 28.6591172,11.5187811 28.6367706,11.5187811 C28.4210773,11.5245941 28.2121851,11.3647352 28.1655487,11.132213 C28.1169691,10.8909713 28.2102419,10.6942964 28.459941,10.6119448 C32.0898073,9.93569296 35.7080146,9.45999145 39.3058184,9.18193375 C39.7148585,9.14996196 40.1190406,9.15383733 40.5144784,9.18871564" id="Fill-23" fill="#FFFFFF"></path>
        <polygon id="Fill-25" fill="#E05A56" points="17.8403442 38 7 39.513376 8.41204589 44.2128595 14.3900574 42.2414617 8.84321224 46.3005165 10.2543021 51 19 42.3527099"></polygon>
        <g id="Group-29" transform="translate(0.000000, 8.000000)">
            <mask id="mask-4" fill="white">
                <use xlink:href="#path-3"></use>
            </mask>
            <g id="Clip-28"></g>
            <polygon id="Fill-27" fill="#E05A56" mask="url(#mask-4)" points="11.0306 0.6182 -0.0004 2.8202 1.3886 7.6342 7.5386 5.1922 1.8366 9.7972 3.2256 14.6112 12.1366 5.0862"></polygon>
        </g>
    </g>
</svg>