<?xml version="1.0" encoding="utf-8"?>
<!-- Generator: Adobe Illustrator 20.1.0, SVG Export Plug-In . SVG Version: 6.00 Build 0)  -->
<svg version="1.1" baseProfile="tiny" id="Layer_1" xmlns="http://www.w3.org/2000/svg" xmlns:xlink="http://www.w3.org/1999/xlink"
	 x="0px" y="0px" viewBox="0 0 50 50" xml:space="preserve">
<path fill="#FFFFFF" d="M16,44.7c18.3,0,28.3-15.2,28.3-28.3c0-0.4,0-0.9,0-1.3c1.9-1.4,3.6-3.2,5-5.1c-1.8,0.8-3.7,1.3-5.7,1.6
	c2.1-1.2,3.6-3.2,4.4-5.5c-2,1.2-4.1,2-6.3,2.4c-3.8-4-10.1-4.2-14.1-0.4c-2.6,2.4-3.7,6.1-2.9,9.5c-8-0.4-15.5-4.2-20.5-10.4
	c-2.6,4.5-1.3,10.4,3.1,13.3c-1.6,0-3.1-0.5-4.5-1.2c0,0,0,0.1,0,0.1c0,4.7,3.3,8.8,8,9.8c-1.5,0.4-3,0.5-4.5,0.2
	c1.3,4.1,5,6.8,9.3,6.9c-3.5,2.8-7.9,4.3-12.4,4.3c-0.8,0-1.6,0-2.4-0.1C5.3,43.2,10.6,44.7,16,44.7"/>
</svg>
