<?xml version="1.0" encoding="UTF-8" standalone="no"?>
<svg width="36px" height="32px" viewBox="0 0 36 32" version="1.1" xmlns="http://www.w3.org/2000/svg" xmlns:xlink="http://www.w3.org/1999/xlink">
    <!-- Generator: Sketch 42 (36781) - http://www.bohemiancoding.com/sketch -->
    <title>vimeo_icon_white</title>
    <desc>Created with Sketch.</desc>
    <defs>
        <polygon id="path-1" points="0.0216774194 31.4322581 0.0216774194 0.120670968 36.128671 0.120670968 36.128671 31.4322581"></polygon>
    </defs>
    <g id="Symbols" stroke="none" stroke-width="1" fill="none" fill-rule="evenodd">
        <g id="SOCIAL" transform="translate(-51.000000, -1.000000)">
            <g id="vimeo_icon_white">
                <g transform="translate(51.000000, 1.000000)">
                    <mask id="mask-2" fill="white">
                        <use xlink:href="#path-1"></use>
                    </mask>
                    <g id="Clip-2"></g>
                    <path d="M35.079071,7.36454194 C34.9182968,10.8882065 32.4618839,15.7132387 27.7109161,21.8371097 C22.7988129,28.2341161 18.6428903,31.4322581 15.2431484,31.4322581 C13.1379097,31.4322581 11.3549419,29.4849032 9.89966452,25.5887484 C8.92707097,22.0173935 7.95556129,18.4464 6.98332903,14.8750452 C5.9019871,10.9810581 4.74260645,9.03153548 3.50301935,9.03153548 C3.23277419,9.03153548 2.28691613,9.60129032 0.667612903,10.7364645 L-1.03225806,8.54234839 C0.750709677,6.97254194 2.50983226,5.40309677 4.2404129,3.83148387 C6.61842581,1.77249032 8.40356129,0.689703226 9.59329032,0.580232258 C12.4052129,0.309625806 14.1357935,2.23530323 14.7853935,6.35762581 C15.4873806,10.8051097 15.9729548,13.5715097 16.2460903,14.6542968 C17.0564645,18.3441548 17.948129,20.1867355 18.922529,20.1867355 C19.6787097,20.1867355 20.8146065,18.9901419 22.3291355,16.5969548 C23.8422194,14.2030452 24.6525935,12.3817806 24.7620645,11.1306323 C24.9773935,9.06477419 24.1666581,8.02931613 22.3291355,8.02931613 C21.4642065,8.02931613 20.5725419,8.22874839 19.6552258,8.62291613 C21.4306065,2.79566452 24.8231226,-0.0343225806 29.8306065,0.127174194 C33.5428645,0.236283871 35.2929548,2.64861935 35.079071,7.36454194" id="Fill-1" fill="#8D8D8D" mask="url(#mask-2)"></path>
                </g>
            </g>
        </g>
    </g>
</svg>